<svg xmlns="http://www.w3.org/2000/svg" viewBox="0 0 900 780" width="900" height="780" role="img">
<defs>
  <linearGradient id="sky" x1="0" y1="0" x2="0" y2="1">
    <stop offset="0" stop-color="#19241f"/><stop offset=".55" stop-color="#121714"/><stop offset="1" stop-color="#0B0D0C"/>
  </linearGradient>
  <radialGradient id="glow"><stop offset="0" stop-color="#B7F229" stop-opacity=".3"/><stop offset="1" stop-color="#B7F229" stop-opacity="0"/></radialGradient>
  <linearGradient id="panel" x1="0" y1="0" x2="1" y2="1">
    <stop offset="0" stop-color="#1b2320"/><stop offset="1" stop-color="#0e1311"/>
  </linearGradient>
</defs>
<rect width="900" height="780" fill="url(#sky)"/>

<circle cx="740" cy="170" r="220" fill="url(#glow)"/>
<path d="M230 700 L230 330 L520 200 L810 330 L810 700 Z" fill="#242826"/>
<path d="M230 330 L520 200 L810 330" fill="none" stroke="#F4F1E8" stroke-opacity=".3" stroke-width="4"/>
<g transform="translate(300 336) skewY(-13)"><rect x="0" y="0" width="130" height="78" fill="url(#panel)" stroke="#A5A7A3" stroke-opacity=".38"/><line x1="0" y1="39" x2="130" y2="39" stroke="#A5A7A3" stroke-opacity=".16"/><rect x="0" y="90" width="130" height="78" fill="url(#panel)" stroke="#A5A7A3" stroke-opacity=".38"/><line x1="0" y1="129" x2="130" y2="129" stroke="#A5A7A3" stroke-opacity=".16"/><rect x="0" y="180" width="130" height="78" fill="url(#panel)" stroke="#A5A7A3" stroke-opacity=".38"/><line x1="0" y1="219" x2="130" y2="219" stroke="#A5A7A3" stroke-opacity=".16"/><rect x="142" y="0" width="130" height="78" fill="url(#panel)" stroke="#A5A7A3" stroke-opacity=".38"/><line x1="142" y1="39" x2="272" y2="39" stroke="#A5A7A3" stroke-opacity=".16"/><rect x="142" y="90" width="130" height="78" fill="url(#panel)" stroke="#A5A7A3" stroke-opacity=".38"/><line x1="142" y1="129" x2="272" y2="129" stroke="#A5A7A3" stroke-opacity=".16"/><rect x="142" y="180" width="130" height="78" fill="url(#panel)" stroke="#A5A7A3" stroke-opacity=".38"/><line x1="142" y1="219" x2="272" y2="219" stroke="#A5A7A3" stroke-opacity=".16"/><rect x="284" y="0" width="130" height="78" fill="url(#panel)" stroke="#A5A7A3" stroke-opacity=".38"/><line x1="284" y1="39" x2="414" y2="39" stroke="#A5A7A3" stroke-opacity=".16"/><rect x="284" y="90" width="130" height="78" fill="url(#panel)" stroke="#A5A7A3" stroke-opacity=".38"/><line x1="284" y1="129" x2="414" y2="129" stroke="#A5A7A3" stroke-opacity=".16"/><rect x="284" y="180" width="130" height="78" fill="url(#panel)" stroke="#A5A7A3" stroke-opacity=".38"/><line x1="284" y1="219" x2="414" y2="219" stroke="#A5A7A3" stroke-opacity=".16"/></g>
<g stroke="#A5A7A3" stroke-opacity=".6" stroke-width="5" fill="none">
    <line x1="80" y1="220" x2="80" y2="700"/><line x1="210" y1="206" x2="210" y2="700"/><line x1="80" y1="220" x2="210" y2="206"/><line x1="80" y1="340" x2="210" y2="326"/><line x1="80" y1="460" x2="210" y2="446"/><line x1="80" y1="580" x2="210" y2="566"/><line x1="80" y1="700" x2="210" y2="436" stroke-opacity=".3"/></g>
<rect x="470" y="636" width="300" height="72" rx="10" fill="#F4F1E8"/>
<path d="M470 636 L470 594 L612 594 L644 636 Z" fill="#F4F1E8"/>
<rect x="612" y="662" width="130" height="9" rx="4" fill="#B7F229"/>
<g fill="#0B0D0C"><circle cx="532" cy="712" r="26"/><circle cx="706" cy="712" r="26"/></g>
<line x1="0" y1="734" x2="900" y2="734" stroke="#F4F1E8" stroke-opacity=".2" stroke-width="3"/>

</svg>
